<svg width="80" height="35" viewBox="0 0 80 35" fill="none" xmlns="http://www.w3.org/2000/svg">
<path d="M23.7812 0.976562C26.9375 0.976562 29.8672 1.25 32.5703 1.79688C35.2891 2.32813 37.7812 3.01562 40.0469 3.85938V11.7344C39.1562 11.2344 38.1484 10.75 37.0234 10.2812C35.9141 9.8125 34.7031 9.39844 33.3906 9.03906C32.0781 8.67969 30.6719 8.39062 29.1719 8.17188C27.6719 7.95313 26.0938 7.84375 24.4375 7.84375C22.375 7.84375 20.5781 7.99219 19.0469 8.28906C17.5156 8.58594 16.2031 8.98438 15.1094 9.48438C14.0156 9.98437 13.1172 10.5703 12.4141 11.2422C11.7109 11.8984 11.1562 12.6016 10.75 13.3516C10.3438 14.1016 10.0625 14.8672 9.90625 15.6484C9.75 16.4297 9.67188 17.1875 9.67188 17.9219C9.67188 18.5625 9.73438 19.2578 9.85938 20.0078C10 20.7578 10.25 21.5078 10.6094 22.2578C10.9844 23.0078 11.5 23.7266 12.1562 24.4141C12.8125 25.1016 13.6641 25.7109 14.7109 26.2422C15.7734 26.7734 17.0469 27.2031 18.5312 27.5312C20.0156 27.8438 21.7812 28 23.8281 28C24.8594 28 25.7578 27.9688 26.5234 27.9062C27.2891 27.8438 27.9844 27.7578 28.6094 27.6484C29.25 27.5391 29.8438 27.4062 30.3906 27.25C30.9531 27.0938 31.5312 26.9297 32.125 26.7578V22.8672H22.375V15.8125H40.8203V32.2656C39.6641 32.6562 38.3672 33.0156 36.9297 33.3438C35.5078 33.6562 34.0312 33.9219 32.5 34.1406C30.9844 34.375 29.4609 34.5547 27.9297 34.6797C26.3984 34.8047 24.9531 34.8672 23.5938 34.8672C21.4844 34.8672 19.4609 34.7266 17.5234 34.4453C15.5859 34.1641 13.7734 33.7344 12.0859 33.1562C10.4141 32.5625 8.88281 31.8125 7.49219 30.9062C6.11719 30 4.9375 28.9219 3.95312 27.6719C2.98438 26.4219 2.22656 24.9922 1.67969 23.3828C1.14844 21.7578 0.882812 19.9375 0.882812 17.9219C0.882812 15.9219 1.16406 14.1094 1.72656 12.4844C2.28906 10.8594 3.07031 9.42187 4.07031 8.17188C5.08594 6.92188 6.29688 5.84375 7.70312 4.9375C9.125 4.03125 10.6797 3.28906 12.3672 2.71094C14.0703 2.11719 15.8828 1.67969 17.8047 1.39844C19.7422 1.11719 21.7344 0.976562 23.7812 0.976562ZM79.7219 25.1172C79.7219 26.3672 79.5578 27.4531 79.2297 28.375C78.9016 29.2969 78.4406 30.0938 77.8469 30.7656C77.2687 31.4219 76.5656 31.9609 75.7375 32.3828C74.925 32.7891 74.0187 33.1172 73.0187 33.3672C72.0344 33.6016 70.9797 33.7656 69.8547 33.8594C68.7297 33.9531 67.5656 34 66.3625 34H42.9953V1.79688H65.9406C66.8625 1.79688 67.7844 1.83594 68.7062 1.91406C69.6437 1.99219 70.5344 2.14063 71.3781 2.35938C72.2219 2.5625 73.0031 2.85156 73.7219 3.22656C74.4562 3.60156 75.0891 4.09375 75.6203 4.70312C76.1672 5.3125 76.5891 6.04687 76.8859 6.90625C77.1984 7.76563 77.3547 8.78125 77.3547 9.95312C77.3547 12.0469 76.8391 13.7109 75.8078 14.9453C74.7766 16.1641 73.1516 16.9766 70.9328 17.3828C72.4953 17.4922 73.8312 17.7344 74.9406 18.1094C76.0656 18.4688 76.9797 18.9688 77.6828 19.6094C78.3859 20.2344 78.9016 21.0078 79.2297 21.9297C79.5578 22.8359 79.7219 23.8984 79.7219 25.1172ZM68.8703 11.3359C68.8703 10.9297 68.8078 10.5469 68.6828 10.1875C68.5578 9.8125 68.3312 9.48438 68.0031 9.20312C67.675 8.92188 67.2297 8.69531 66.6672 8.52344C66.1047 8.35156 65.3859 8.26562 64.5109 8.26562H51.6906V14.3125H64.5109C65.3859 14.3125 66.1047 14.2344 66.6672 14.0781C67.2297 13.9219 67.675 13.7109 68.0031 13.4453C68.3312 13.1797 68.5578 12.8672 68.6828 12.5078C68.8078 12.1328 68.8703 11.7422 68.8703 11.3359ZM70.8859 24.1094C70.8859 23.375 70.7609 22.7891 70.5109 22.3516C70.2609 21.8984 69.8703 21.5547 69.3391 21.3203C68.8078 21.0703 68.1203 20.9062 67.2766 20.8281C66.4328 20.75 65.425 20.7109 64.2531 20.7109H51.6906V27.5312H64.2531C65.425 27.5312 66.4328 27.4922 67.2766 27.4141C68.1203 27.3359 68.8078 27.1719 69.3391 26.9219C69.8703 26.6719 70.2609 26.3281 70.5109 25.8906C70.7609 25.4375 70.8859 24.8438 70.8859 24.1094Z" fill="#09030B"/>
</svg>
