<svg width="64" height="64" viewBox="0 0 64 64" fill="none" xmlns="http://www.w3.org/2000/svg">
<path d="M57.1429 0H6.85714C3.07143 0 0 3.07143 0 6.85714V57.1429C0 60.9286 3.07143 64 6.85714 64H57.1429C60.9286 64 64 60.9286 64 57.1429V6.85714C64 3.07143 60.9286 0 57.1429 0ZM39.6143 54.8143C38.4143 55.0286 37.9714 54.2857 37.9714 53.6714C37.9714 52.9 38 48.9571 38 45.7714C38 43.5429 37.2571 42.1286 36.3857 41.3857C41.6714 40.8 47.2429 40.0714 47.2429 30.9429C47.2429 28.3429 46.3143 27.0429 44.8 25.3714C45.0429 24.7571 45.8571 22.2286 44.5571 18.9429C42.5714 18.3286 38.0286 21.5 38.0286 21.5C36.1429 20.9714 34.1 20.7 32.0857 20.7C30.0714 20.7 28.0286 20.9714 26.1429 21.5C26.1429 21.5 21.6 18.3286 19.6143 18.9429C18.3143 22.2143 19.1143 24.7429 19.3714 25.3714C17.8571 27.0429 17.1429 28.3429 17.1429 30.9429C17.1429 40.0286 22.4714 40.8 27.7571 41.3857C27.0714 42 26.4571 43.0571 26.2429 44.5714C24.8857 45.1857 21.4143 46.2429 19.3429 42.5857C18.0429 40.3286 15.7 40.1429 15.7 40.1429C13.3857 40.1143 15.5429 41.6 15.5429 41.6C17.0857 42.3143 18.1714 45.0571 18.1714 45.0571C19.5571 49.3 26.1857 47.8714 26.1857 47.8714C26.1857 49.8571 26.2143 53.0857 26.2143 53.6714C26.2143 54.2857 25.7857 55.0286 24.5714 54.8143C15.1429 51.6571 8.54286 42.6857 8.54286 32.2C8.54286 19.0857 18.5714 9.12857 31.6857 9.12857C44.8 9.12857 55.4286 19.0857 55.4286 32.2C55.4429 42.6857 49.0429 51.6714 39.6143 54.8143ZM25.6 46.0857C25.3286 46.1429 25.0714 46.0286 25.0429 45.8429C25.0143 45.6286 25.2 45.4429 25.4714 45.3857C25.7429 45.3571 26 45.4714 26.0286 45.6571C26.0714 45.8429 25.8857 46.0286 25.6 46.0857ZM24.2429 45.9571C24.2429 46.1429 24.0286 46.3 23.7429 46.3C23.4286 46.3286 23.2143 46.1714 23.2143 45.9571C23.2143 45.7714 23.4286 45.6143 23.7143 45.6143C23.9857 45.5857 24.2429 45.7429 24.2429 45.9571ZM22.2857 45.8C22.2286 45.9857 21.9429 46.0714 21.7 45.9857C21.4286 45.9286 21.2429 45.7143 21.3 45.5286C21.3571 45.3429 21.6429 45.2571 21.8857 45.3143C22.1714 45.4 22.3571 45.6143 22.2857 45.8ZM20.5286 45.0286C20.4 45.1857 20.1286 45.1571 19.9143 44.9429C19.7 44.7571 19.6429 44.4857 19.7857 44.3571C19.9143 44.2 20.1857 44.2286 20.4 44.4429C20.5857 44.6286 20.6571 44.9143 20.5286 45.0286ZM19.2286 43.7286C19.1 43.8143 18.8571 43.7286 18.7 43.5143C18.5429 43.3 18.5429 43.0571 18.7 42.9571C18.8571 42.8286 19.1 42.9286 19.2286 43.1429C19.3857 43.3571 19.3857 43.6143 19.2286 43.7286V43.7286ZM18.3 42.3429C18.1714 42.4714 17.9571 42.4 17.8 42.2571C17.6429 42.0714 17.6143 41.8571 17.7429 41.7571C17.8714 41.6286 18.0857 41.7 18.2429 41.8429C18.4 42.0286 18.4286 42.2429 18.3 42.3429ZM17.3429 41.2857C17.2857 41.4143 17.1 41.4429 16.9429 41.3429C16.7571 41.2571 16.6714 41.1 16.7286 40.9714C16.7857 40.8857 16.9429 40.8429 17.1286 40.9143C17.3143 41.0143 17.4 41.1714 17.3429 41.2857Z" fill="#1C1F33"/>
</svg>
